<?xml version="1.0" encoding="UTF-8" standalone="no"?><svg xmlns="http://www.w3.org/2000/svg" xmlns:xlink="http://www.w3.org/1999/xlink" contentScriptType="application/ecmascript" contentStyleType="text/css" height="1479px" preserveAspectRatio="none" style="width:2000px;height:1479px;" version="1.1" viewBox="0 0 2000 1479" width="2000px" zoomAndPan="magnify"><defs><filter height="300%" id="fhadxd76ur0y" width="300%" x="-1" y="-1"><feGaussianBlur result="blurOut" stdDeviation="2.0"/><feColorMatrix in="blurOut" result="blurOut2" type="matrix" values="0 0 0 0 0 0 0 0 0 0 0 0 0 0 0 0 0 0 .4 0"/><feOffset dx="4.0" dy="4.0" in="blurOut2" result="blurOut3"/><feBlend in="SourceGraphic" in2="blurOut3" mode="normal"/></filter></defs><g><rect fill="#FFFFFF" filter="url(#fhadxd76ur0y)" height="1288.1875" style="stroke:#A80036;stroke-width:1.0;" width="10" x="33" y="98.2969"/><rect fill="#FFFFFF" filter="url(#fhadxd76ur0y)" height="108.5313" style="stroke:#A80036;stroke-width:1.0;" width="10" x="583" y="98.2969"/><rect fill="#FFFFFF" filter="url(#fhadxd76ur0y)" height="58.2656" style="stroke:#A80036;stroke-width:1.0;" width="10" x="583" y="289.2266"/><rect fill="#FFFFFF" filter="url(#fhadxd76ur0y)" height="204.7969" style="stroke:#A80036;stroke-width:1.0;" width="10" x="583" y="391.4297"/><rect fill="#FFFFFF" filter="url(#fhadxd76ur0y)" height="123.5313" style="stroke:#A80036;stroke-width:1.0;" width="10" x="583" y="625.3594"/><rect fill="#FFFFFF" filter="url(#fhadxd76ur0y)" height="58.2656" style="stroke:#A80036;stroke-width:1.0;" width="10" x="583" y="807.1563"/><rect fill="#FFFFFF" filter="url(#fhadxd76ur0y)" height="82.3984" style="stroke:#A80036;stroke-width:1.0;" width="10" x="583" y="894.5547"/><rect fill="#FFFFFF" filter="url(#fhadxd76ur0y)" height="116.5313" style="stroke:#A80036;stroke-width:1.0;" width="10" x="583" y="1035.2188"/><rect fill="#FFFFFF" filter="url(#fhadxd76ur0y)" height="73.0703" style="stroke:#A80036;stroke-width:1.0;" width="10" x="583" y="1239.1484"/><rect fill="#FFFFFF" filter="url(#fhadxd76ur0y)" height="140.6641" style="stroke:#A80036;stroke-width:1.0;" width="10" x="1155" y="177.6953"/><rect fill="#FFFFFF" filter="url(#fhadxd76ur0y)" height="73.0703" style="stroke:#A80036;stroke-width:1.0;" width="10" x="1155" y="347.4922"/><rect fill="#FFFFFF" filter="url(#fhadxd76ur0y)" height="182.6641" style="stroke:#A80036;stroke-width:1.0;" width="10" x="1155" y="537.0938"/><rect fill="#FFFFFF" filter="url(#fhadxd76ur0y)" height="87.3984" style="stroke:#A80036;stroke-width:1.0;" width="10" x="1155" y="748.8906"/><rect fill="#FFFFFF" filter="url(#fhadxd76ur0y)" height="116.5313" style="stroke:#A80036;stroke-width:1.0;" width="10" x="1155" y="947.8203"/><rect fill="#FFFFFF" filter="url(#fhadxd76ur0y)" height="116.5313" style="stroke:#A80036;stroke-width:1.0;" width="10" x="1155" y="1122.6172"/><rect fill="#FFFFFF" filter="url(#fhadxd76ur0y)" height="87.3984" style="stroke:#A80036;stroke-width:1.0;" width="10" x="1155" y="1283.0859"/><rect fill="#FFFFFF" filter="url(#fhadxd76ur0y)" height="29.1328" style="stroke:#A80036;stroke-width:1.0;" width="10" x="1240.5" y="865.4219"/><rect fill="#FFFFFF" filter="url(#fhadxd76ur0y)" height="29.1328" style="stroke:#A80036;stroke-width:1.0;" width="10" x="1459" y="206.8281"/><rect fill="#FFFFFF" filter="url(#fhadxd76ur0y)" height="43.9375" style="stroke:#A80036;stroke-width:1.0;" width="10" x="1459" y="347.4922"/><rect fill="#FFFFFF" filter="url(#fhadxd76ur0y)" height="59.1328" style="stroke:#A80036;stroke-width:1.0;" width="10" x="1459" y="566.2266"/><rect fill="#FFFFFF" filter="url(#fhadxd76ur0y)" height="58.2656" style="stroke:#A80036;stroke-width:1.0;" width="10" x="1459" y="748.8906"/><rect fill="#FFFFFF" filter="url(#fhadxd76ur0y)" height="58.2656" style="stroke:#A80036;stroke-width:1.0;" width="10" x="1459" y="976.9531"/><rect fill="#FFFFFF" filter="url(#fhadxd76ur0y)" height="29.1328" style="stroke:#A80036;stroke-width:1.0;" width="10" x="1459" y="1151.75"/><rect fill="#FFFFFF" filter="url(#fhadxd76ur0y)" height="29.1328" style="stroke:#A80036;stroke-width:1.0;" width="10" x="1459" y="1312.2188"/><rect fill="#FFFFFF" filter="url(#fhadxd76ur0y)" height="29.1328" style="stroke:#A80036;stroke-width:1.0;" width="10" x="1633" y="1180.8828"/><rect fill="#FFFFFF" filter="url(#fhadxd76ur0y)" height="29.1328" style="stroke:#A80036;stroke-width:1.0;" width="10" x="1633" y="1341.3516"/><rect fill="#FFFFFF" filter="url(#fhadxd76ur0y)" height="29.1328" style="stroke:#A80036;stroke-width:1.0;" width="10" x="1867.5" y="1210.0156"/><rect fill="#FFFFFF" filter="url(#fhadxd76ur0y)" height="440.6641" style="stroke:#000000;stroke-width:2.0;" width="1507" x="10" y="250.9609"/><rect fill="#FFFFFF" height="336.1328" style="stroke:none;stroke-width:1.0;" width="1507" x="10" y="355.4922"/><rect fill="#FFFFFF" filter="url(#fhadxd76ur0y)" height="468.9297" style="stroke:#000000;stroke-width:2.0;" width="1976" x="10" y="909.5547"/><rect fill="#FFFFFF" height="131.3359" style="stroke:none;stroke-width:1.0;" width="1976" x="10" y="1247.1484"/><line style="stroke:#A80036;stroke-width:1.0;stroke-dasharray:5.0,5.0;" x1="38" x2="38" y1="88.2969" y2="1395.4844"/><line style="stroke:#A80036;stroke-width:1.0;stroke-dasharray:5.0,5.0;" x1="587.5" x2="587.5" y1="88.2969" y2="1395.4844"/><line style="stroke:#A80036;stroke-width:1.0;stroke-dasharray:5.0,5.0;" x1="1159.5" x2="1159.5" y1="88.2969" y2="1395.4844"/><line style="stroke:#A80036;stroke-width:1.0;stroke-dasharray:5.0,5.0;" x1="1245.5" x2="1245.5" y1="88.2969" y2="1395.4844"/><line style="stroke:#A80036;stroke-width:1.0;stroke-dasharray:5.0,5.0;" x1="1464" x2="1464" y1="88.2969" y2="1395.4844"/><line style="stroke:#A80036;stroke-width:1.0;stroke-dasharray:5.0,5.0;" x1="1638" x2="1638" y1="88.2969" y2="1395.4844"/><line style="stroke:#A80036;stroke-width:1.0;stroke-dasharray:5.0,5.0;" x1="1872" x2="1872" y1="88.2969" y2="1395.4844"/><text fill="#000000" font-family="sans-serif" font-size="14" lengthAdjust="spacingAndGlyphs" textLength="30" x="20" y="84.9951">CEO</text><ellipse cx="38" cy="15" fill="#FEFECE" filter="url(#fhadxd76ur0y)" rx="8" ry="8" style="stroke:#A80036;stroke-width:2.0;"/><path d="M38,23 L38,50 M25,31 L51,31 M38,50 L25,65 M38,50 L51,65 " fill="none" filter="url(#fhadxd76ur0y)" style="stroke:#A80036;stroke-width:2.0;"/><text fill="#000000" font-family="sans-serif" font-size="14" lengthAdjust="spacingAndGlyphs" textLength="30" x="20" y="1407.4795">CEO</text><ellipse cx="38" cy="1420.7813" fill="#FEFECE" filter="url(#fhadxd76ur0y)" rx="8" ry="8" style="stroke:#A80036;stroke-width:2.0;"/><path d="M38,1428.7813 L38,1455.7813 M25,1436.7813 L51,1436.7813 M38,1455.7813 L25,1470.7813 M38,1455.7813 L51,1470.7813 " fill="none" filter="url(#fhadxd76ur0y)" style="stroke:#A80036;stroke-width:2.0;"/><rect fill="#FEFECE" filter="url(#fhadxd76ur0y)" height="30.2969" style="stroke:#A80036;stroke-width:1.5;" width="27" x="572.5" y="53"/><text fill="#000000" font-family="sans-serif" font-size="14" lengthAdjust="spacingAndGlyphs" textLength="13" x="579.5" y="72.9951">UI</text><rect fill="#FEFECE" filter="url(#fhadxd76ur0y)" height="30.2969" style="stroke:#A80036;stroke-width:1.5;" width="27" x="572.5" y="1394.4844"/><text fill="#000000" font-family="sans-serif" font-size="14" lengthAdjust="spacingAndGlyphs" textLength="13" x="579.5" y="1414.4795">UI</text><rect fill="#FEFECE" filter="url(#fhadxd76ur0y)" height="30.2969" style="stroke:#A80036;stroke-width:1.5;" width="61" x="1127.5" y="53"/><text fill="#000000" font-family="sans-serif" font-size="14" lengthAdjust="spacingAndGlyphs" textLength="47" x="1134.5" y="72.9951">Server</text><rect fill="#FEFECE" filter="url(#fhadxd76ur0y)" height="30.2969" style="stroke:#A80036;stroke-width:1.5;" width="61" x="1127.5" y="1394.4844"/><text fill="#000000" font-family="sans-serif" font-size="14" lengthAdjust="spacingAndGlyphs" textLength="47" x="1134.5" y="1414.4795">Server</text><rect fill="#FEFECE" filter="url(#fhadxd76ur0y)" height="30.2969" style="stroke:#A80036;stroke-width:1.5;" width="82" x="1202.5" y="53"/><text fill="#000000" font-family="sans-serif" font-size="14" lengthAdjust="spacingAndGlyphs" textLength="68" x="1209.5" y="72.9951">Complain</text><rect fill="#FEFECE" filter="url(#fhadxd76ur0y)" height="30.2969" style="stroke:#A80036;stroke-width:1.5;" width="82" x="1202.5" y="1394.4844"/><text fill="#000000" font-family="sans-serif" font-size="14" lengthAdjust="spacingAndGlyphs" textLength="68" x="1209.5" y="1414.4795">Complain</text><rect fill="#FEFECE" filter="url(#fhadxd76ur0y)" height="30.2969" style="stroke:#A80036;stroke-width:1.5;" width="82" x="1421" y="53"/><text fill="#000000" font-family="sans-serif" font-size="14" lengthAdjust="spacingAndGlyphs" textLength="68" x="1428" y="72.9951">Database</text><rect fill="#FEFECE" filter="url(#fhadxd76ur0y)" height="30.2969" style="stroke:#A80036;stroke-width:1.5;" width="82" x="1421" y="1394.4844"/><text fill="#000000" font-family="sans-serif" font-size="14" lengthAdjust="spacingAndGlyphs" textLength="68" x="1428" y="1414.4795">Database</text><rect fill="#FEFECE" filter="url(#fhadxd76ur0y)" height="30.2969" style="stroke:#A80036;stroke-width:1.5;" width="238" x="1517" y="53"/><text fill="#000000" font-family="sans-serif" font-size="14" lengthAdjust="spacingAndGlyphs" textLength="224" x="1524" y="72.9951">Excisting_Account_Coordinator</text><rect fill="#FEFECE" filter="url(#fhadxd76ur0y)" height="30.2969" style="stroke:#A80036;stroke-width:1.5;" width="238" x="1517" y="1394.4844"/><text fill="#000000" font-family="sans-serif" font-size="14" lengthAdjust="spacingAndGlyphs" textLength="224" x="1524" y="1414.4795">Excisting_Account_Coordinator</text><rect fill="#FEFECE" filter="url(#fhadxd76ur0y)" height="30.2969" style="stroke:#A80036;stroke-width:1.5;" width="203" x="1769" y="53"/><text fill="#000000" font-family="sans-serif" font-size="14" lengthAdjust="spacingAndGlyphs" textLength="189" x="1776" y="72.9951">New_Account_Coordinator</text><rect fill="#FEFECE" filter="url(#fhadxd76ur0y)" height="30.2969" style="stroke:#A80036;stroke-width:1.5;" width="203" x="1769" y="1394.4844"/><text fill="#000000" font-family="sans-serif" font-size="14" lengthAdjust="spacingAndGlyphs" textLength="189" x="1776" y="1414.4795">New_Account_Coordinator</text><rect fill="#FFFFFF" filter="url(#fhadxd76ur0y)" height="1288.1875" style="stroke:#A80036;stroke-width:1.0;" width="10" x="33" y="98.2969"/><rect fill="#FFFFFF" filter="url(#fhadxd76ur0y)" height="108.5313" style="stroke:#A80036;stroke-width:1.0;" width="10" x="583" y="98.2969"/><rect fill="#FFFFFF" filter="url(#fhadxd76ur0y)" height="58.2656" style="stroke:#A80036;stroke-width:1.0;" width="10" x="583" y="289.2266"/><rect fill="#FFFFFF" filter="url(#fhadxd76ur0y)" height="204.7969" style="stroke:#A80036;stroke-width:1.0;" width="10" x="583" y="391.4297"/><rect fill="#FFFFFF" filter="url(#fhadxd76ur0y)" height="123.5313" style="stroke:#A80036;stroke-width:1.0;" width="10" x="583" y="625.3594"/><rect fill="#FFFFFF" filter="url(#fhadxd76ur0y)" height="58.2656" style="stroke:#A80036;stroke-width:1.0;" width="10" x="583" y="807.1563"/><rect fill="#FFFFFF" filter="url(#fhadxd76ur0y)" height="82.3984" style="stroke:#A80036;stroke-width:1.0;" width="10" x="583" y="894.5547"/><rect fill="#FFFFFF" filter="url(#fhadxd76ur0y)" height="116.5313" style="stroke:#A80036;stroke-width:1.0;" width="10" x="583" y="1035.2188"/><rect fill="#FFFFFF" filter="url(#fhadxd76ur0y)" height="73.0703" style="stroke:#A80036;stroke-width:1.0;" width="10" x="583" y="1239.1484"/><rect fill="#FFFFFF" filter="url(#fhadxd76ur0y)" height="140.6641" style="stroke:#A80036;stroke-width:1.0;" width="10" x="1155" y="177.6953"/><rect fill="#FFFFFF" filter="url(#fhadxd76ur0y)" height="73.0703" style="stroke:#A80036;stroke-width:1.0;" width="10" x="1155" y="347.4922"/><rect fill="#FFFFFF" filter="url(#fhadxd76ur0y)" height="182.6641" style="stroke:#A80036;stroke-width:1.0;" width="10" x="1155" y="537.0938"/><rect fill="#FFFFFF" filter="url(#fhadxd76ur0y)" height="87.3984" style="stroke:#A80036;stroke-width:1.0;" width="10" x="1155" y="748.8906"/><rect fill="#FFFFFF" filter="url(#fhadxd76ur0y)" height="116.5313" style="stroke:#A80036;stroke-width:1.0;" width="10" x="1155" y="947.8203"/><rect fill="#FFFFFF" filter="url(#fhadxd76ur0y)" height="116.5313" style="stroke:#A80036;stroke-width:1.0;" width="10" x="1155" y="1122.6172"/><rect fill="#FFFFFF" filter="url(#fhadxd76ur0y)" height="87.3984" style="stroke:#A80036;stroke-width:1.0;" width="10" x="1155" y="1283.0859"/><rect fill="#FFFFFF" filter="url(#fhadxd76ur0y)" height="29.1328" style="stroke:#A80036;stroke-width:1.0;" width="10" x="1240.5" y="865.4219"/><rect fill="#FFFFFF" filter="url(#fhadxd76ur0y)" height="29.1328" style="stroke:#A80036;stroke-width:1.0;" width="10" x="1459" y="206.8281"/><rect fill="#FFFFFF" filter="url(#fhadxd76ur0y)" height="43.9375" style="stroke:#A80036;stroke-width:1.0;" width="10" x="1459" y="347.4922"/><rect fill="#FFFFFF" filter="url(#fhadxd76ur0y)" height="59.1328" style="stroke:#A80036;stroke-width:1.0;" width="10" x="1459" y="566.2266"/><rect fill="#FFFFFF" filter="url(#fhadxd76ur0y)" height="58.2656" style="stroke:#A80036;stroke-width:1.0;" width="10" x="1459" y="748.8906"/><rect fill="#FFFFFF" filter="url(#fhadxd76ur0y)" height="58.2656" style="stroke:#A80036;stroke-width:1.0;" width="10" x="1459" y="976.9531"/><rect fill="#FFFFFF" filter="url(#fhadxd76ur0y)" height="29.1328" style="stroke:#A80036;stroke-width:1.0;" width="10" x="1459" y="1151.75"/><rect fill="#FFFFFF" filter="url(#fhadxd76ur0y)" height="29.1328" style="stroke:#A80036;stroke-width:1.0;" width="10" x="1459" y="1312.2188"/><rect fill="#FFFFFF" filter="url(#fhadxd76ur0y)" height="29.1328" style="stroke:#A80036;stroke-width:1.0;" width="10" x="1633" y="1180.8828"/><rect fill="#FFFFFF" filter="url(#fhadxd76ur0y)" height="29.1328" style="stroke:#A80036;stroke-width:1.0;" width="10" x="1633" y="1341.3516"/><rect fill="#FFFFFF" filter="url(#fhadxd76ur0y)" height="29.1328" style="stroke:#A80036;stroke-width:1.0;" width="10" x="1867.5" y="1210.0156"/><polygon fill="#A80036" points="571,115.4297,581,119.4297,571,123.4297,575,119.4297" style="stroke:#A80036;stroke-width:1.0;"/><line style="stroke:#A80036;stroke-width:1.0;" x1="43" x2="577" y1="119.4297" y2="119.4297"/><text fill="#000000" font-family="sans-serif" font-size="13" lengthAdjust="spacingAndGlyphs" textLength="74" x="50" y="114.3638">Ask to login</text><polygon fill="#A80036" points="54,144.5625,44,148.5625,54,152.5625,50,148.5625" style="stroke:#A80036;stroke-width:1.0;"/><line style="stroke:#A80036;stroke-width:1.0;" x1="48" x2="582" y1="148.5625" y2="148.5625"/><text fill="#000000" font-family="sans-serif" font-size="13" lengthAdjust="spacingAndGlyphs" textLength="119" x="60" y="143.4966">Request password</text><polygon fill="#A80036" points="571,173.6953,581,177.6953,571,181.6953,575,177.6953" style="stroke:#A80036;stroke-width:1.0;"/><line style="stroke:#A80036;stroke-width:1.0;" x1="43" x2="577" y1="177.6953" y2="177.6953"/><text fill="#000000" font-family="sans-serif" font-size="13" lengthAdjust="spacingAndGlyphs" textLength="95" x="50" y="172.6294">Give password</text><polygon fill="#A80036" points="1143,202.8281,1153,206.8281,1143,210.8281,1147,206.8281" style="stroke:#A80036;stroke-width:1.0;"/><line style="stroke:#A80036;stroke-width:1.0;" x1="588" x2="1149" y1="206.8281" y2="206.8281"/><text fill="#000000" font-family="sans-serif" font-size="13" lengthAdjust="spacingAndGlyphs" textLength="191" x="595" y="201.7622">Request to validate password</text><polygon fill="#A80036" points="1452,231.9609,1462,235.9609,1452,239.9609,1456,235.9609" style="stroke:#A80036;stroke-width:1.0;"/><line style="stroke:#A80036;stroke-width:1.0;" x1="1165" x2="1458" y1="235.9609" y2="235.9609"/><text fill="#000000" font-family="sans-serif" font-size="13" lengthAdjust="spacingAndGlyphs" textLength="146" x="1172" y="230.895">Authentication request</text><path d="M10,250.9609 L76,250.9609 L76,257.9609 L66,267.9609 L10,267.9609 L10,250.9609 " fill="#EEEEEE" style="stroke:#000000;stroke-width:1.0;"/><rect fill="none" height="440.6641" style="stroke:#000000;stroke-width:2.0;" width="1507" x="10" y="250.9609"/><text fill="#000000" font-family="sans-serif" font-size="13" font-weight="bold" lengthAdjust="spacingAndGlyphs" textLength="21" x="25" y="264.0278">alt</text><text fill="#000000" font-family="sans-serif" font-size="11" font-weight="bold" lengthAdjust="spacingAndGlyphs" textLength="127" x="91" y="263.1714">[password correct]</text><polygon fill="#A80036" points="1176,285.2266,1166,289.2266,1176,293.2266,1172,289.2266" style="stroke:#A80036;stroke-width:1.0;"/><line style="stroke:#A80036;stroke-width:1.0;" x1="1170" x2="1463" y1="289.2266" y2="289.2266"/><text fill="#000000" font-family="sans-serif" font-size="13" lengthAdjust="spacingAndGlyphs" textLength="161" x="1182" y="284.1606">Authentication Accepted.</text><polygon fill="#A80036" points="604,314.3594,594,318.3594,604,322.3594,600,318.3594" style="stroke:#A80036;stroke-width:1.0;"/><line style="stroke:#A80036;stroke-width:1.0;" x1="598" x2="1159" y1="318.3594" y2="318.3594"/><text fill="#000000" font-family="sans-serif" font-size="13" lengthAdjust="spacingAndGlyphs" textLength="155" x="610" y="313.2935">Give permision to Login.</text><polygon fill="#A80036" points="54,343.4922,44,347.4922,54,351.4922,50,347.4922" style="stroke:#A80036;stroke-width:1.0;"/><line style="stroke:#A80036;stroke-width:1.0;" x1="48" x2="587" y1="347.4922" y2="347.4922"/><text fill="#000000" font-family="sans-serif" font-size="13" lengthAdjust="spacingAndGlyphs" textLength="105" x="60" y="342.4263">Login succesfull.</text><line style="stroke:#000000;stroke-width:1.0;stroke-dasharray:2.0,2.0;" x1="10" x2="1517" y1="356.4922" y2="356.4922"/><text fill="#000000" font-family="sans-serif" font-size="11" font-weight="bold" lengthAdjust="spacingAndGlyphs" textLength="112" x="15" y="366.7026">[error password]</text><polygon fill="#A80036" points="1176,387.4297,1166,391.4297,1176,395.4297,1172,391.4297" style="stroke:#A80036;stroke-width:1.0;"/><line style="stroke:#A80036;stroke-width:1.0;" x1="1170" x2="1463" y1="391.4297" y2="391.4297"/><text fill="#000000" font-family="sans-serif" font-size="13" lengthAdjust="spacingAndGlyphs" textLength="139" x="1182" y="386.3638">Authentication Failure</text><polygon fill="#A80036" points="604,416.5625,594,420.5625,604,424.5625,600,420.5625" style="stroke:#A80036;stroke-width:1.0;"/><line style="stroke:#A80036;stroke-width:1.0;" x1="598" x2="1159" y1="420.5625" y2="420.5625"/><text fill="#000000" font-family="sans-serif" font-size="13" lengthAdjust="spacingAndGlyphs" textLength="108" x="610" y="415.4966">Blocked to Login.</text><polygon fill="#A80036" points="54,445.6953,44,449.6953,54,453.6953,50,449.6953" style="stroke:#A80036;stroke-width:1.0;"/><line style="stroke:#A80036;stroke-width:1.0;" x1="48" x2="582" y1="449.6953" y2="449.6953"/><text fill="#000000" font-family="sans-serif" font-size="13" lengthAdjust="spacingAndGlyphs" textLength="125" x="60" y="444.6294">Get error massage.</text><polygon fill="#A80036" points="571,474.8281,581,478.8281,571,482.8281,575,478.8281" style="stroke:#A80036;stroke-width:1.0;"/><line style="stroke:#A80036;stroke-width:1.0;" x1="43" x2="577" y1="478.8281" y2="478.8281"/><text fill="#000000" font-family="sans-serif" font-size="13" lengthAdjust="spacingAndGlyphs" textLength="172" x="50" y="473.7622">Ask to reset the password.</text><polygon fill="#A80036" points="54,503.9609,44,507.9609,54,511.9609,50,507.9609" style="stroke:#A80036;stroke-width:1.0;"/><line style="stroke:#A80036;stroke-width:1.0;" x1="48" x2="582" y1="507.9609" y2="507.9609"/><text fill="#000000" font-family="sans-serif" font-size="13" lengthAdjust="spacingAndGlyphs" textLength="240" x="60" y="502.895">Ask to reset and registration process.</text><polygon fill="#A80036" points="571,533.0938,581,537.0938,571,541.0938,575,537.0938" style="stroke:#A80036;stroke-width:1.0;"/><line style="stroke:#A80036;stroke-width:1.0;" x1="43" x2="577" y1="537.0938" y2="537.0938"/><text fill="#000000" font-family="sans-serif" font-size="13" lengthAdjust="spacingAndGlyphs" textLength="130" x="50" y="532.0278">Give new password.</text><polygon fill="#A80036" points="1143,562.2266,1153,566.2266,1143,570.2266,1147,566.2266" style="stroke:#A80036;stroke-width:1.0;"/><line style="stroke:#A80036;stroke-width:1.0;" x1="593" x2="1149" y1="566.2266" y2="566.2266"/><text fill="#000000" font-family="sans-serif" font-size="13" lengthAdjust="spacingAndGlyphs" textLength="130" x="600" y="561.1606">Give new password.</text><polygon fill="#A80036" points="1452,621.3594,1462,625.3594,1452,629.3594,1456,625.3594" style="stroke:#A80036;stroke-width:1.0;"/><line style="stroke:#A80036;stroke-width:1.0;" x1="1165" x2="1458" y1="625.3594" y2="625.3594"/><text fill="#000000" font-family="sans-serif" font-size="13" lengthAdjust="spacingAndGlyphs" textLength="177" x="1172" y="620.2935">Replace the new password.</text><polygon fill="#A80036" points="604,650.4922,594,654.4922,604,658.4922,600,654.4922" style="stroke:#A80036;stroke-width:1.0;"/><line style="stroke:#A80036;stroke-width:1.0;" x1="598" x2="1154" y1="654.4922" y2="654.4922"/><text fill="#000000" font-family="sans-serif" font-size="13" lengthAdjust="spacingAndGlyphs" textLength="155" x="610" y="649.4263">Give permision to Login.</text><polygon fill="#A80036" points="54,679.625,44,683.625,54,687.625,50,683.625" style="stroke:#A80036;stroke-width:1.0;"/><line style="stroke:#A80036;stroke-width:1.0;" x1="48" x2="582" y1="683.625" y2="683.625"/><text fill="#000000" font-family="sans-serif" font-size="13" lengthAdjust="spacingAndGlyphs" textLength="105" x="60" y="678.5591">Login succesfull.</text><polygon fill="#A80036" points="604,715.7578,594,719.7578,604,723.7578,600,719.7578" style="stroke:#A80036;stroke-width:1.0;"/><line style="stroke:#A80036;stroke-width:1.0;" x1="598" x2="1159" y1="719.7578" y2="719.7578"/><text fill="#000000" font-family="sans-serif" font-size="13" lengthAdjust="spacingAndGlyphs" textLength="538" x="610" y="714.6919">Recieve notification about late respond of account coordinator and project manager</text><polygon fill="#A80036" points="54,744.8906,44,748.8906,54,752.8906,50,748.8906" style="stroke:#A80036;stroke-width:1.0;"/><line style="stroke:#A80036;stroke-width:1.0;" x1="48" x2="587" y1="748.8906" y2="748.8906"/><text fill="#000000" font-family="sans-serif" font-size="13" lengthAdjust="spacingAndGlyphs" textLength="516" x="60" y="743.8247">Give notification about late respond of account coordinator and project manager</text><polygon fill="#A80036" points="1447,774.0234,1457,778.0234,1447,782.0234,1451,778.0234" style="stroke:#A80036;stroke-width:1.0;"/><line style="stroke:#A80036;stroke-width:1.0;" x1="1165" x2="1453" y1="778.0234" y2="778.0234"/><text fill="#000000" font-family="sans-serif" font-size="13" lengthAdjust="spacingAndGlyphs" textLength="193" x="1172" y="772.9575">Request complain information</text><polygon fill="#A80036" points="1176,803.1563,1166,807.1563,1176,811.1563,1172,807.1563" style="stroke:#A80036;stroke-width:1.0;"/><line style="stroke:#A80036;stroke-width:1.0;" x1="1170" x2="1463" y1="807.1563" y2="807.1563"/><text fill="#000000" font-family="sans-serif" font-size="13" lengthAdjust="spacingAndGlyphs" textLength="169" x="1182" y="802.0903">Give complain information</text><polygon fill="#A80036" points="604,832.2891,594,836.2891,604,840.2891,600,836.2891" style="stroke:#A80036;stroke-width:1.0;"/><line style="stroke:#A80036;stroke-width:1.0;" x1="598" x2="1159" y1="836.2891" y2="836.2891"/><text fill="#000000" font-family="sans-serif" font-size="13" lengthAdjust="spacingAndGlyphs" textLength="169" x="610" y="831.2231">Give complain information</text><polygon fill="#A80036" points="54,861.4219,44,865.4219,54,869.4219,50,865.4219" style="stroke:#A80036;stroke-width:1.0;"/><line style="stroke:#A80036;stroke-width:1.0;" x1="48" x2="587" y1="865.4219" y2="865.4219"/><text fill="#000000" font-family="sans-serif" font-size="13" lengthAdjust="spacingAndGlyphs" textLength="169" x="60" y="860.356">Give complain information</text><polygon fill="#A80036" points="1233.5,890.5547,1243.5,894.5547,1233.5,898.5547,1237.5,894.5547" style="stroke:#A80036;stroke-width:1.0;"/><line style="stroke:#A80036;stroke-width:1.0;" x1="43" x2="1239.5" y1="894.5547" y2="894.5547"/><text fill="#000000" font-family="sans-serif" font-size="13" lengthAdjust="spacingAndGlyphs" textLength="109" x="50" y="889.4888">Review complain</text><path d="M10,909.5547 L76,909.5547 L76,916.5547 L66,926.5547 L10,926.5547 L10,909.5547 " fill="#EEEEEE" style="stroke:#000000;stroke-width:1.0;"/><rect fill="none" height="468.9297" style="stroke:#000000;stroke-width:2.0;" width="1976" x="10" y="909.5547"/><text fill="#000000" font-family="sans-serif" font-size="13" font-weight="bold" lengthAdjust="spacingAndGlyphs" textLength="21" x="25" y="922.6216">alt</text><text fill="#000000" font-family="sans-serif" font-size="11" font-weight="bold" lengthAdjust="spacingAndGlyphs" textLength="299" x="91" y="921.7651">[reqired to change the account coordinator]</text><polygon fill="#A80036" points="571,943.8203,581,947.8203,571,951.8203,575,947.8203" style="stroke:#A80036;stroke-width:1.0;"/><line style="stroke:#A80036;stroke-width:1.0;" x1="43" x2="577" y1="947.8203" y2="947.8203"/><text fill="#000000" font-family="sans-serif" font-size="13" lengthAdjust="spacingAndGlyphs" textLength="278" x="50" y="942.7544">Request to change the account coordinator</text><polygon fill="#A80036" points="1143,972.9531,1153,976.9531,1143,980.9531,1147,976.9531" style="stroke:#A80036;stroke-width:1.0;"/><line style="stroke:#A80036;stroke-width:1.0;" x1="588" x2="1149" y1="976.9531" y2="976.9531"/><text fill="#000000" font-family="sans-serif" font-size="13" lengthAdjust="spacingAndGlyphs" textLength="278" x="595" y="971.8872">Request to change the account coordinator</text><polygon fill="#A80036" points="1447,1002.0859,1457,1006.0859,1447,1010.0859,1451,1006.0859" style="stroke:#A80036;stroke-width:1.0;"/><line style="stroke:#A80036;stroke-width:1.0;" x1="1165" x2="1453" y1="1006.0859" y2="1006.0859"/><text fill="#000000" font-family="sans-serif" font-size="13" lengthAdjust="spacingAndGlyphs" textLength="270" x="1172" y="1001.02">Request account coordinators information</text><polygon fill="#A80036" points="1176,1031.2188,1166,1035.2188,1176,1039.2188,1172,1035.2188" style="stroke:#A80036;stroke-width:1.0;"/><line style="stroke:#A80036;stroke-width:1.0;" x1="1170" x2="1463" y1="1035.2188" y2="1035.2188"/><text fill="#000000" font-family="sans-serif" font-size="13" lengthAdjust="spacingAndGlyphs" textLength="246" x="1182" y="1030.1528">Give account coordinators information</text><polygon fill="#A80036" points="604,1060.3516,594,1064.3516,604,1068.3516,600,1064.3516" style="stroke:#A80036;stroke-width:1.0;"/><line style="stroke:#A80036;stroke-width:1.0;" x1="598" x2="1159" y1="1064.3516" y2="1064.3516"/><text fill="#000000" font-family="sans-serif" font-size="13" lengthAdjust="spacingAndGlyphs" textLength="246" x="610" y="1059.2856">Give account coordinators information</text><polygon fill="#A80036" points="54,1089.4844,44,1093.4844,54,1097.4844,50,1093.4844" style="stroke:#A80036;stroke-width:1.0;"/><line style="stroke:#A80036;stroke-width:1.0;" x1="48" x2="582" y1="1093.4844" y2="1093.4844"/><text fill="#000000" font-family="sans-serif" font-size="13" lengthAdjust="spacingAndGlyphs" textLength="246" x="60" y="1088.4185">Give account coordinators information</text><polygon fill="#A80036" points="571,1118.6172,581,1122.6172,571,1126.6172,575,1122.6172" style="stroke:#A80036;stroke-width:1.0;"/><line style="stroke:#A80036;stroke-width:1.0;" x1="43" x2="577" y1="1122.6172" y2="1122.6172"/><text fill="#000000" font-family="sans-serif" font-size="13" lengthAdjust="spacingAndGlyphs" textLength="227" x="50" y="1117.5513">Select the new account coordinator</text><polygon fill="#A80036" points="1143,1147.75,1153,1151.75,1143,1155.75,1147,1151.75" style="stroke:#A80036;stroke-width:1.0;"/><line style="stroke:#A80036;stroke-width:1.0;" x1="588" x2="1149" y1="1151.75" y2="1151.75"/><text fill="#000000" font-family="sans-serif" font-size="13" lengthAdjust="spacingAndGlyphs" textLength="195" x="595" y="1146.6841">Send new account coordinator</text><polygon fill="#A80036" points="1452,1176.8828,1462,1180.8828,1452,1184.8828,1456,1180.8828" style="stroke:#A80036;stroke-width:1.0;"/><line style="stroke:#A80036;stroke-width:1.0;" x1="1165" x2="1458" y1="1180.8828" y2="1180.8828"/><text fill="#000000" font-family="sans-serif" font-size="13" lengthAdjust="spacingAndGlyphs" textLength="208" x="1172" y="1175.8169">Replace the account coordinator</text><polygon fill="#A80036" points="1626,1206.0156,1636,1210.0156,1626,1214.0156,1630,1210.0156" style="stroke:#A80036;stroke-width:1.0;"/><line style="stroke:#A80036;stroke-width:1.0;" x1="1165" x2="1632" y1="1210.0156" y2="1210.0156"/><text fill="#000000" font-family="sans-serif" font-size="13" lengthAdjust="spacingAndGlyphs" textLength="235" x="1172" y="1204.9497">Send an e-mail about about removal</text><polygon fill="#A80036" points="1860.5,1235.1484,1870.5,1239.1484,1860.5,1243.1484,1864.5,1239.1484" style="stroke:#A80036;stroke-width:1.0;"/><line style="stroke:#A80036;stroke-width:1.0;" x1="1160" x2="1866.5" y1="1239.1484" y2="1239.1484"/><text fill="#000000" font-family="sans-serif" font-size="13" lengthAdjust="spacingAndGlyphs" textLength="254" x="1167" y="1234.0825">Send an e-mail about new appointment</text><line style="stroke:#000000;stroke-width:1.0;stroke-dasharray:2.0,2.0;" x1="10" x2="1986" y1="1248.1484" y2="1248.1484"/><text fill="#000000" font-family="sans-serif" font-size="11" font-weight="bold" lengthAdjust="spacingAndGlyphs" textLength="327" x="15" y="1258.3589">[not reqired to change the account coordinator]</text><polygon fill="#A80036" points="571,1279.0859,581,1283.0859,571,1287.0859,575,1283.0859" style="stroke:#A80036;stroke-width:1.0;"/><line style="stroke:#A80036;stroke-width:1.0;" x1="43" x2="577" y1="1283.0859" y2="1283.0859"/><text fill="#000000" font-family="sans-serif" font-size="13" lengthAdjust="spacingAndGlyphs" textLength="323" x="50" y="1278.02">Set reminder to account coordinator about his late</text><polygon fill="#A80036" points="1143,1308.2188,1153,1312.2188,1143,1316.2188,1147,1312.2188" style="stroke:#A80036;stroke-width:1.0;"/><line style="stroke:#A80036;stroke-width:1.0;" x1="588" x2="1149" y1="1312.2188" y2="1312.2188"/><text fill="#000000" font-family="sans-serif" font-size="13" lengthAdjust="spacingAndGlyphs" textLength="214" x="595" y="1307.1528">Give information about reminder.</text><polygon fill="#A80036" points="1452,1337.3516,1462,1341.3516,1452,1345.3516,1456,1341.3516" style="stroke:#A80036;stroke-width:1.0;"/><line style="stroke:#A80036;stroke-width:1.0;" x1="1165" x2="1458" y1="1341.3516" y2="1341.3516"/><text fill="#000000" font-family="sans-serif" font-size="13" lengthAdjust="spacingAndGlyphs" textLength="180" x="1172" y="1336.2856">Give udates about reminder</text><polygon fill="#A80036" points="1626,1366.4844,1636,1370.4844,1626,1374.4844,1630,1370.4844" style="stroke:#A80036;stroke-width:1.0;"/><line style="stroke:#A80036;stroke-width:1.0;" x1="1160" x2="1632" y1="1370.4844" y2="1370.4844"/><text fill="#000000" font-family="sans-serif" font-size="13" lengthAdjust="spacingAndGlyphs" textLength="306" x="1167" y="1365.4185">Send an e-mail and notification about reminder.</text><!--MD5=[7a12c53a41d78f269c7753737fedfcb0]
@startuml
Actor CEO
participant UI
participant Server
participant Complain
participant Database

participant Excisting_Account_Coordinator
participant New_Account_Coordinator

Activate CEO
Activate UI
CEO -> UI: Ask to login
UI -> CEO: Request password
CEO -> UI: Give password
Activate Server
UI -> Server : Request to validate password
Deactivate UI
Activate Database
Server -> Database: Authentication request 

Deactivate Database


alt password correct




    Database -> Server: Authentication Accepted.

Activate UI
    Server -> UI : Give permision to Login.
Deactivate Server

    UI -> CEO: Login succesfull.
 Deactivate UI  
else error password
    Activate Database
Activate Server
    Database -> Server: Authentication Failure
    Deactivate Database
Activate UI
    Server -> UI : Blocked to Login.
Deactivate Server
    UI -> CEO: Get error massage.
    CEO -> UI: Ask to reset the password.
    UI -> CEO: Ask to reset and registration process.
    CEO -> UI: Give new password.
Activate Server
    UI -> Server : Give new password.
Activate Database
Deactivate UI
    Server -> Database: Replace the new password.
Deactivate Database
Activate UI
    Server -> UI : Give permision to Login.

    UI -> CEO: Login succesfull.


    
end





Server -> UI: Recieve notification about late respond of account coordinator and project manager
Deactivate Server
UI -> CEO: Give notification about late respond of account coordinator and project manager
Deactivate UI
Activate Server
Activate Database
Server -> Database: Request complain information
Database -> Server: Give complain information
Deactivate Database

Activate UI
Server -> UI: Give complain information
Deactivate Server
UI -> CEO: Give complain information

Deactivate UI



Activate Complain
CEO -> Complain: Review complain
Deactivate Complain

alt reqired to change the account coordinator
Activate UI

CEO -> UI: Request to change the account coordinator
Activate Server
UI -> Server:Request to change the account coordinator
Deactivate UI
Activate Database
Server -> Database: Request account coordinators information
Database -> Server: Give account coordinators information
Deactivate Database
Activate UI
Server -> UI:Give account coordinators information
Deactivate Server
UI -> CEO: Give account coordinators information
CEO -> UI: Select the new account coordinator
Activate Server
UI -> Server: Send new account coordinator
Deactivate UI
Activate Database
Server -> Database: Replace the account coordinator
Deactivate Database
Activate Excisting_Account_Coordinator
Server ->Excisting_Account_Coordinator : Send an e-mail about about removal
Deactivate Excisting_Account_Coordinator
Activate New_Account_Coordinator 
Server ->New_Account_Coordinator : Send an e-mail about new appointment
Deactivate New_Account_Coordinator
Deactivate Server
else not reqired to change the account coordinator
Activate UI
CEO -> UI: Set reminder to account coordinator about his late 
Activate Server
UI -> Server: Give information about reminder. 
Deactivate UI
Activate Database
Server -> Database: Give udates about reminder
Deactivate Database
Activate Excisting_Account_Coordinator
Server ->Excisting_Account_Coordinator : Send an e-mail and notification about reminder.
Deactivate Excisting_Account_Coordinator
Deactivate Server

end
@enduml

PlantUML version 1.2020.24(Fri Dec 18 17:00:36 UTC 2020)
(GPL source distribution)
Java Runtime: Java(TM) SE Runtime Environment
JVM: Java HotSpot(TM) 64-Bit Server VM
Default Encoding: UTF-8
Language: en
Country: US
--></g></svg>